<svg xmlns="http://www.w3.org/2000/svg" aria-label="Vite" viewBox="0 0 410 404"><path fill="#41D1FF" d="M399.6 59.5L215.6 388.7c-3.8 6.8-13.5 6.9-17.4.2L10.3 59.6c-4.2-7.4 2.1-16.3 10.4-14.9l184.2 33a10 10 0 0 0 3.5 0l180.8-32.9c8.3-1.5 14.6 7.4 10.4 14.8Z"/><path fill="#BD34FE" d="M292.9.4L156.8 27c-2.2.4-4 2-4.8 4.1L68.1 272.6c-2 5.8 3.4 11.4 9.2 9.8l37.9-10.3a8 8 0 0 1 10 5l24.4 74.7c1.6 4.9 8.4 5 10.1.1l4.1-11.8L229.6 154a8 8 0 0 1 10-5l66.6 18.1c5.8 1.6 11.1-4 9-9.8L297.8 5.3a8 8 0 0 0-4.9-4.9Z"/></svg>
